<?xml version="1.0" encoding="UTF-8" standalone="no"?>
<!-- Created with Inkscape (http://www.inkscape.org/) -->

<svg
   xmlns:dc="http://purl.org/dc/elements/1.1/"
   xmlns:cc="http://creativecommons.org/ns#"
   xmlns:rdf="http://www.w3.org/1999/02/22-rdf-syntax-ns#"
   xmlns:svg="http://www.w3.org/2000/svg"
   xmlns="http://www.w3.org/2000/svg"
   xmlns:sodipodi="http://sodipodi.sourceforge.net/DTD/sodipodi-0.dtd"
   xmlns:inkscape="http://www.inkscape.org/namespaces/inkscape"
   width="744.09448819"
   height="1052.3622047"
   id="svg2"
   version="1.1"
   inkscape:version="0.48.4 r9939"
   sodipodi:docname="drawing.svg">
  <defs
     id="defs4" />
  <sodipodi:namedview
     id="base"
     pagecolor="#ffffff"
     bordercolor="#666666"
     borderopacity="1.0"
     inkscape:pageopacity="0.0"
     inkscape:pageshadow="2"
     inkscape:zoom="1.2554057"
     inkscape:cx="311.28561"
     inkscape:cy="629.76686"
     inkscape:document-units="px"
     inkscape:current-layer="layer1"
     showgrid="false"
     inkscape:window-width="1920"
     inkscape:window-height="1176"
     inkscape:window-x="1920"
     inkscape:window-y="24"
     inkscape:window-maximized="1" />
  <metadata
     id="metadata7">
    <rdf:RDF>
      <cc:Work
         rdf:about="">
        <dc:format>image/svg+xml</dc:format>
        <dc:type
           rdf:resource="http://purl.org/dc/dcmitype/StillImage" />
        <dc:title />
      </cc:Work>
    </rdf:RDF>
  </metadata>
  <g
     inkscape:label="Layer 1"
     inkscape:groupmode="layer"
     id="layer1">
    <path
       sodipodi:type="arc"
       style="opacity:0.96000001;fill:none;stroke:#000000;stroke-width:36.32828903;stroke-miterlimit:4;stroke-opacity:1;stroke-dasharray:none"
       id="path2985"
       sodipodi:cx="-762.85712"
       sodipodi:cy="-90.494957"
       sodipodi:rx="105.71429"
       sodipodi:ry="105.71429"
       d="m -657.14283,-90.494957 a 105.71429,105.71429 0 1 1 -211.42857,0 105.71429,105.71429 0 1 1 211.42857,0 z"
       transform="matrix(0.15615027,0,0,0.15615027,245.75776,540.31191)" />
    <path
       style="fill:none;stroke:#000000;stroke-width:5.67267227;stroke-linecap:butt;stroke-linejoin:miter;stroke-miterlimit:4;stroke-opacity:1;stroke-dasharray:none"
       d="m 144.14166,526.8294 85.57631,0"
       id="path3757"
       inkscape:connector-curvature="0"
       sodipodi:nodetypes="cc" />
    <path
       sodipodi:nodetypes="cc"
       inkscape:connector-curvature="0"
       id="path3014"
       d="m 23.922942,527.47863 85.576308,0"
       style="fill:none;stroke:#000000;stroke-width:5.67267227;stroke-linecap:butt;stroke-linejoin:miter;stroke-miterlimit:4;stroke-opacity:1;stroke-dasharray:none" />
    <path
       style="fill:none;stroke:#000000;stroke-width:5.67267227;stroke-linecap:butt;stroke-linejoin:miter;stroke-miterlimit:4;stroke-opacity:1;stroke-dasharray:none"
       d="m 26.866819,675.01836 85.576311,0"
       id="path3016"
       inkscape:connector-curvature="0"
       sodipodi:nodetypes="cc" />
    <text
       sodipodi:linespacing="125%"
       id="text3018"
       y="717.92322"
       x="62.174908"
       style="font-size:25.0487957px;font-style:normal;font-variant:normal;font-weight:normal;font-stretch:normal;line-height:125%;letter-spacing:0px;word-spacing:0px;fill:#000000;fill-opacity:1;stroke:none;font-family:Source Sans Pro;-inkscape-font-specification:Source Sans Pro"
       xml:space="preserve"><tspan
         y="717.92322"
         x="62.174908"
         id="tspan3020"
         sodipodi:role="line">Automatische</tspan><tspan
         y="749.23419"
         x="62.174908"
         sodipodi:role="line"
         id="tspan3809">Abmeldung</tspan></text>
    <path
       sodipodi:nodetypes="csc"
       inkscape:connector-curvature="0"
       id="path3022"
       d="m 118.82266,529.04709 c 0,0 4.75405,5.95588 5.50292,3.23537 1.8734,-6.80568 7.3759,-13.42677 7.3759,-13.42677"
       style="fill:none;stroke:#007700;stroke-width:4.99999952;stroke-linecap:butt;stroke-linejoin:miter;stroke-miterlimit:4;stroke-opacity:1;stroke-dasharray:none" />
    <path
       transform="matrix(0.15615028,0,0,0.15615028,314.4018,102.86185)"
       d="m -657.14283,-90.494957 a 105.71429,105.71429 0 1 1 -211.42857,0 105.71429,105.71429 0 1 1 211.42857,0 z"
       sodipodi:ry="105.71429"
       sodipodi:rx="105.71429"
       sodipodi:cy="-90.494957"
       sodipodi:cx="-762.85712"
       id="path3759"
       style="opacity:0.96000001;fill:none;stroke:#000000;stroke-width:36.32828903;stroke-miterlimit:4;stroke-opacity:1;stroke-dasharray:none"
       sodipodi:type="arc" />
    <g
       id="g3765"
       transform="matrix(0.07563563,0,0,0.07563563,362.40448,499.74606)">
      <path
         sodipodi:type="arc"
         style="opacity:0.96000001;fill:none;stroke:#000000;stroke-width:36.32828903;stroke-miterlimit:4;stroke-opacity:1;stroke-dasharray:none"
         id="path3767"
         sodipodi:cx="-762.85712"
         sodipodi:cy="-90.494957"
         sodipodi:rx="105.71429"
         sodipodi:ry="105.71429"
         d="m -657.14283,-90.494957 c 0,58.384388 -47.3299,105.714287 -105.71429,105.714287 -58.38439,0 -105.71428,-47.329899 -105.71428,-105.714287 0,-58.384393 47.32989,-105.714283 105.71428,-105.714283 58.38439,0 105.71429,47.32989 105.71429,105.714283 z"
         transform="matrix(2.0645068,0,0,2.0645068,52.066583,536.3325)" />
      <path
         style="fill:none;stroke:#000000;stroke-width:75;stroke-linecap:butt;stroke-linejoin:miter;stroke-miterlimit:4;stroke-opacity:1;stroke-dasharray:none"
         d="m -1291.4285,358.07647 1131.4285,0"
         id="path3769"
         inkscape:connector-curvature="0"
         sodipodi:nodetypes="cc" />
    </g>
    <g
       transform="matrix(0.07563563,0,0,0.07563563,483.42765,499.74606)"
       id="g3771">
      <path
         transform="matrix(2.0645068,0,0,2.0645068,52.066583,536.3325)"
         d="m -657.14283,-90.494957 c 0,58.384388 -47.3299,105.714287 -105.71429,105.714287 -58.38439,0 -105.71428,-47.329899 -105.71428,-105.714287 0,-58.384393 47.32989,-105.714283 105.71428,-105.714283 58.38439,0 105.71429,47.32989 105.71429,105.714283 z"
         sodipodi:ry="105.71429"
         sodipodi:rx="105.71429"
         sodipodi:cy="-90.494957"
         sodipodi:cx="-762.85712"
         id="path3773"
         style="opacity:0.96000001;fill:none;stroke:#000000;stroke-width:36.32828903;stroke-miterlimit:4;stroke-opacity:1;stroke-dasharray:none"
         sodipodi:type="arc" />
      <path
         sodipodi:nodetypes="cc"
         inkscape:connector-curvature="0"
         id="path3775"
         d="m -1291.4285,358.07647 1131.4285,0"
         style="fill:none;stroke:#000000;stroke-width:75;stroke-linecap:butt;stroke-linejoin:miter;stroke-miterlimit:4;stroke-opacity:1;stroke-dasharray:none" />
    </g>
    <g
       id="g3777"
       transform="matrix(0.07563563,0,0,0.07563563,604.45084,499.74606)">
      <path
         sodipodi:type="arc"
         style="opacity:0.96000001;fill:none;stroke:#000000;stroke-width:36.32828903;stroke-miterlimit:4;stroke-opacity:1;stroke-dasharray:none"
         id="path3779"
         sodipodi:cx="-762.85712"
         sodipodi:cy="-90.494957"
         sodipodi:rx="105.71429"
         sodipodi:ry="105.71429"
         d="m -657.14283,-90.494957 c 0,58.384388 -47.3299,105.714287 -105.71429,105.714287 -58.38439,0 -105.71428,-47.329899 -105.71428,-105.714287 0,-58.384393 47.32989,-105.714283 105.71428,-105.714283 58.38439,0 105.71429,47.32989 105.71429,105.714283 z"
         transform="matrix(2.0645068,0,0,2.0645068,52.066583,536.3325)" />
      <path
         style="fill:none;stroke:#000000;stroke-width:75;stroke-linecap:butt;stroke-linejoin:miter;stroke-miterlimit:4;stroke-opacity:1;stroke-dasharray:none"
         d="m -1291.4285,358.07647 1131.4285,0"
         id="path3781"
         inkscape:connector-curvature="0"
         sodipodi:nodetypes="cc" />
    </g>
    <text
       xml:space="preserve"
       style="font-size:40px;font-style:normal;font-variant:normal;font-weight:normal;font-stretch:normal;line-height:125%;letter-spacing:0px;word-spacing:0px;fill:#000000;fill-opacity:1;stroke:none;font-family:Source Code Pro;-inkscape-font-specification:Source Code Pro"
       x="-366.72076"
       y="363.96497"
       id="text2995"
       sodipodi:linespacing="125%"
       transform="matrix(0.5,-0.8660254,0.8660254,0.5,0,0)"><tspan
         sodipodi:role="line"
         id="tspan2997"
         x="-366.72076"
         y="363.96497"
         style="font-style:normal;font-variant:normal;font-weight:bold;font-stretch:normal;text-align:start;text-anchor:start;font-family:Source Sans Pro;-inkscape-font-specification:Source Sans Pro Bold" /><tspan
         sodipodi:role="line"
         x="-366.72076"
         y="413.96497"
         style="font-style:normal;font-variant:normal;font-weight:bold;font-stretch:normal;text-align:start;text-anchor:start;font-family:Source Sans Pro;-inkscape-font-specification:Source Sans Pro Bold"
         id="tspan2999" /></text>
    <text
       xml:space="preserve"
       style="font-size:40px;font-style:normal;font-variant:normal;font-weight:normal;font-stretch:normal;line-height:125%;letter-spacing:0px;word-spacing:0px;fill:#000000;fill-opacity:1;stroke:none;font-family:Source Sans Pro;-inkscape-font-specification:Source Sans Pro"
       x="-369.06354"
       y="357.66962"
       id="text2998"
       sodipodi:linespacing="125%"
       transform="matrix(0.5,-0.8660254,0.8660254,0.5,0,0)"><tspan
         sodipodi:role="line"
         id="tspan3000"
         x="-369.06354"
         y="357.66962">Übung 0</tspan></text>
    <text
       sodipodi:linespacing="125%"
       id="text3002"
       y="464.00043"
       x="-307.6734"
       style="font-size:40px;font-style:normal;font-variant:normal;font-weight:normal;font-stretch:normal;line-height:125%;letter-spacing:0px;word-spacing:0px;fill:#000000;fill-opacity:1;stroke:none;font-family:Source Sans Pro;-inkscape-font-specification:Source Sans Pro"
       xml:space="preserve"
       transform="matrix(0.5,-0.8660254,0.8660254,0.5,0,0)"><tspan
         y="464.00043"
         x="-307.6734"
         id="tspan3004"
         sodipodi:role="line">Übung 1</tspan></text>
    <text
       xml:space="preserve"
       style="font-size:40px;font-style:normal;font-variant:normal;font-weight:normal;font-stretch:normal;line-height:125%;letter-spacing:0px;word-spacing:0px;fill:#000000;fill-opacity:1;stroke:none;font-family:Source Sans Pro;-inkscape-font-specification:Source Sans Pro"
       x="-243.44672"
       y="575.24432"
       id="text3006"
       sodipodi:linespacing="125%"
       transform="matrix(0.5,-0.8660254,0.8660254,0.5,0,0)"><tspan
         sodipodi:role="line"
         id="tspan3008"
         x="-243.44672"
         y="575.24432">Übung 2</tspan></text>
    <text
       sodipodi:linespacing="125%"
       id="text3010"
       y="676.96521"
       x="-184.71812"
       style="font-size:40px;font-style:normal;font-variant:normal;font-weight:normal;font-stretch:normal;line-height:125%;letter-spacing:0px;word-spacing:0px;fill:#000000;fill-opacity:1;stroke:none;font-family:Source Sans Pro;-inkscape-font-specification:Source Sans Pro"
       xml:space="preserve"
       transform="matrix(0.5,-0.8660254,0.8660254,0.5,0,0)"><tspan
         y="676.96521"
         x="-184.71812"
         id="tspan3012"
         sodipodi:role="line">Übung 3</tspan></text>
    <path
       sodipodi:type="arc"
       style="opacity:0.96000001;fill:none;stroke:#000000;stroke-width:36.32828903;stroke-miterlimit:4;stroke-opacity:1;stroke-dasharray:none"
       id="path3792"
       sodipodi:cx="-762.85712"
       sodipodi:cy="-90.494957"
       sodipodi:rx="105.71429"
       sodipodi:ry="105.71429"
       d="m -657.14283,-90.494957 a 105.71429,105.71429 0 1 1 -211.42857,0 105.71429,105.71429 0 1 1 211.42857,0 z"
       transform="matrix(0.15615028,0,0,0.15615028,247.36891,689.77898)" />
    <path
       style="fill:none;stroke:#db0000;stroke-width:6;stroke-linecap:butt;stroke-linejoin:miter;stroke-miterlimit:4;stroke-opacity:1;stroke-dasharray:none"
       d="m 120.00141,667.07114 15.83451,17.15405"
       id="path3794"
       inkscape:connector-curvature="0" />
    <path
       style="fill:none;stroke:#db0000;stroke-width:6;stroke-linecap:butt;stroke-linejoin:miter;stroke-miterlimit:4;stroke-opacity:1;stroke-dasharray:none"
       d="M 121.32095,683.56542 136.4957,667.07114"
       id="path3796"
       inkscape:connector-curvature="0" />
    <path
       inkscape:connector-curvature="0"
       id="path3889"
       d="m 241.07781,569.89139 15.83451,17.15406"
       style="fill:none;stroke:#db0000;stroke-width:6;stroke-linecap:butt;stroke-linejoin:miter;stroke-miterlimit:4;stroke-opacity:1;stroke-dasharray:none" />
    <path
       inkscape:connector-curvature="0"
       id="path3891"
       d="m 242.39735,586.38568 15.17474,-16.49429"
       style="fill:none;stroke:#db0000;stroke-width:6;stroke-linecap:butt;stroke-linejoin:miter;stroke-miterlimit:4;stroke-opacity:1;stroke-dasharray:none" />
    <path
       sodipodi:type="arc"
       style="opacity:0.96000001;fill:none;stroke:#000000;stroke-width:36.32828903;stroke-miterlimit:4;stroke-opacity:1;stroke-dasharray:none"
       id="path3811"
       sodipodi:cx="-762.85712"
       sodipodi:cy="-90.494957"
       sodipodi:rx="105.71429"
       sodipodi:ry="105.71429"
       d="m -657.14283,-90.494957 a 105.71429,105.71429 0 1 1 -211.42857,0 105.71429,105.71429 0 1 1 211.42857,0 z"
       transform="matrix(0.15615028,0,0,0.15615028,728.61053,540.96724)" />
    <text
       transform="matrix(0.5,-0.8660254,0.8660254,0.5,0,0)"
       xml:space="preserve"
       style="font-size:40px;font-style:normal;font-variant:normal;font-weight:normal;font-stretch:normal;line-height:125%;letter-spacing:0px;word-spacing:0px;fill:#000000;fill-opacity:1;stroke:none;font-family:Source Sans Pro;-inkscape-font-specification:Source Sans Pro"
       x="-119.82746"
       y="782.98663"
       id="text3813"
       sodipodi:linespacing="125%"><tspan
         sodipodi:role="line"
         id="tspan3815"
         x="-119.82746"
         y="782.98663">Note</tspan></text>
    <path
       transform="matrix(0.15615027,0,0,0.15615027,247.35087,592.88456)"
       d="m -657.14283,-90.494957 a 105.71429,105.71429 0 1 1 -211.42857,0 105.71429,105.71429 0 1 1 211.42857,0 z"
       sodipodi:ry="105.71429"
       sodipodi:rx="105.71429"
       sodipodi:cy="-90.494957"
       sodipodi:cx="-762.85712"
       id="path3817"
       style="opacity:0.96000001;fill:none;stroke:#000000;stroke-width:36.32828903;stroke-miterlimit:4;stroke-opacity:1;stroke-dasharray:none"
       sodipodi:type="arc" />
    <path
       sodipodi:nodetypes="cc"
       inkscape:connector-curvature="0"
       id="path3819"
       d="m 145.73477,579.40205 85.57631,0"
       style="fill:none;stroke:#000000;stroke-width:5.67267227;stroke-linecap:butt;stroke-linejoin:miter;stroke-miterlimit:4;stroke-opacity:1;stroke-dasharray:none" />
    <path
       style="fill:none;stroke:#000000;stroke-width:5.67267227;stroke-linecap:butt;stroke-linejoin:miter;stroke-miterlimit:4;stroke-opacity:1;stroke-dasharray:none"
       d="m 25.516052,580.05128 85.576308,0"
       id="path3821"
       inkscape:connector-curvature="0"
       sodipodi:nodetypes="cc" />
    <path
       style="fill:none;stroke:#007700;stroke-width:4.99999952;stroke-linecap:butt;stroke-linejoin:miter;stroke-miterlimit:4;stroke-opacity:1;stroke-dasharray:none"
       d="m 120.41577,581.61974 c 0,0 4.75405,5.95588 5.50292,3.23537 1.8734,-6.80568 7.3759,-13.42677 7.3759,-13.42677"
       id="path3823"
       inkscape:connector-curvature="0"
       sodipodi:nodetypes="csc" />
    <g
       transform="matrix(0.07563563,0,0,0.07563563,363.99759,552.31871)"
       id="g3825">
      <path
         transform="matrix(2.0645068,0,0,2.0645068,52.066583,536.3325)"
         d="m -657.14283,-90.494957 c 0,58.384388 -47.3299,105.714287 -105.71429,105.714287 -58.38439,0 -105.71428,-47.329899 -105.71428,-105.714287 0,-58.384393 47.32989,-105.714283 105.71428,-105.714283 58.38439,0 105.71429,47.32989 105.71429,105.714283 z"
         sodipodi:ry="105.71429"
         sodipodi:rx="105.71429"
         sodipodi:cy="-90.494957"
         sodipodi:cx="-762.85712"
         id="path3827"
         style="opacity:0.96000001;fill:none;stroke:#000000;stroke-width:36.32828903;stroke-miterlimit:4;stroke-opacity:1;stroke-dasharray:none"
         sodipodi:type="arc" />
      <path
         sodipodi:nodetypes="cc"
         inkscape:connector-curvature="0"
         id="path3829"
         d="m -1291.4285,358.07647 1131.4285,0"
         style="fill:none;stroke:#000000;stroke-width:75;stroke-linecap:butt;stroke-linejoin:miter;stroke-miterlimit:4;stroke-opacity:1;stroke-dasharray:none" />
    </g>
    <g
       id="g3831"
       transform="matrix(0.07563563,0,0,0.07563563,485.02076,552.31871)">
      <path
         sodipodi:type="arc"
         style="opacity:0.96000001;fill:none;stroke:#000000;stroke-width:36.32828903;stroke-miterlimit:4;stroke-opacity:1;stroke-dasharray:none"
         id="path3833"
         sodipodi:cx="-762.85712"
         sodipodi:cy="-90.494957"
         sodipodi:rx="105.71429"
         sodipodi:ry="105.71429"
         d="m -657.14283,-90.494957 c 0,58.384388 -47.3299,105.714287 -105.71429,105.714287 -58.38439,0 -105.71428,-47.329899 -105.71428,-105.714287 0,-58.384393 47.32989,-105.714283 105.71428,-105.714283 58.38439,0 105.71429,47.32989 105.71429,105.714283 z"
         transform="matrix(2.0645068,0,0,2.0645068,52.066583,536.3325)" />
      <path
         style="fill:none;stroke:#000000;stroke-width:75;stroke-linecap:butt;stroke-linejoin:miter;stroke-miterlimit:4;stroke-opacity:1;stroke-dasharray:none"
         d="m -1291.4285,358.07647 1131.4285,0"
         id="path3835"
         inkscape:connector-curvature="0"
         sodipodi:nodetypes="cc" />
    </g>
    <g
       transform="matrix(0.07181606,-0.02373186,0.02373186,0.07181606,589.33952,515.16419)"
       id="g3837">
      <path
         transform="matrix(2.0645068,0,0,2.0645068,52.066583,536.3325)"
         d="m -657.14283,-90.494957 c 0,58.384388 -47.3299,105.714287 -105.71429,105.714287 -58.38439,0 -105.71428,-47.329899 -105.71428,-105.714287 0,-58.384393 47.32989,-105.714283 105.71428,-105.714283 58.38439,0 105.71429,47.32989 105.71429,105.714283 z"
         sodipodi:ry="105.71429"
         sodipodi:rx="105.71429"
         sodipodi:cy="-90.494957"
         sodipodi:cx="-762.85712"
         id="path3839"
         style="opacity:0.96000001;fill:none;stroke:#000000;stroke-width:36.32828903;stroke-miterlimit:4;stroke-opacity:1;stroke-dasharray:none"
         sodipodi:type="arc" />
      <path
         sodipodi:nodetypes="cc"
         inkscape:connector-curvature="0"
         id="path3841"
         d="M -1291.4285,358.07647 -6.9600585,297.733"
         style="fill:none;stroke:#000000;stroke-width:75;stroke-linecap:butt;stroke-linejoin:miter;stroke-miterlimit:4;stroke-opacity:1;stroke-dasharray:none" />
    </g>
    <path
       sodipodi:nodetypes="ccc"
       inkscape:connector-curvature="0"
       id="path3885"
       d="m 144.41436,675.6595 203.6834,-2.16419 93.23121,-21.48099"
       style="fill:none;stroke:#000000;stroke-width:5.67267227;stroke-linecap:butt;stroke-linejoin:miter;stroke-miterlimit:4;stroke-opacity:1;stroke-dasharray:none" />
    <g
       id="g3961"
       transform="translate(216.66303,313.84277)">
      <path
         transform="matrix(0.15615027,0,0,0.15615027,30.687846,328.42822)"
         d="m -657.14283,-90.494957 c 0,58.384388 -47.3299,105.714287 -105.71429,105.714287 -58.38439,0 -105.71428,-47.329899 -105.71428,-105.714287 0,-58.384393 47.32989,-105.714283 105.71428,-105.714283 58.38439,0 105.71429,47.32989 105.71429,105.714283 z"
         sodipodi:ry="105.71429"
         sodipodi:rx="105.71429"
         sodipodi:cy="-90.494957"
         sodipodi:cx="-762.85712"
         id="path3922"
         style="opacity:0.96000001;fill:none;stroke:#000000;stroke-width:36.32828903;stroke-miterlimit:4;stroke-opacity:1;stroke-dasharray:none"
         sodipodi:type="arc" />
      <path
         style="fill:none;stroke:#000000;stroke-width:5.67267227;stroke-linecap:butt;stroke-linejoin:miter;stroke-miterlimit:4;stroke-opacity:1;stroke-dasharray:none"
         d="m -191.14698,315.59494 85.57632,0"
         id="path3924"
         inkscape:connector-curvature="0"
         sodipodi:nodetypes="cc" />
      <path
         style="fill:none;stroke:#007700;stroke-width:4.99999952;stroke-linecap:butt;stroke-linejoin:miter;stroke-miterlimit:4;stroke-opacity:1;stroke-dasharray:none"
         d="m -96.247254,317.1634 c 0,0 4.75405,5.95588 5.50292,3.23537 1.8734,-6.80568 7.3759,-13.42677 7.3759,-13.42677"
         id="path3926"
         inkscape:connector-curvature="0"
         sodipodi:nodetypes="csc" />
    </g>
    <path
       style="fill:none;stroke:#007700;stroke-width:4.99999952;stroke-linecap:butt;stroke-linejoin:miter;stroke-miterlimit:4;stroke-opacity:1;stroke-dasharray:none"
       d="m 239.89906,529.04709 c 0,0 4.75405,5.95588 5.50292,3.23537 1.8734,-6.80568 7.3759,-13.42677 7.3759,-13.42677"
       id="path3861"
       inkscape:connector-curvature="0"
       sodipodi:nodetypes="csc" />
    <text
       xml:space="preserve"
       style="font-size:25.0487957px;font-style:normal;font-variant:normal;font-weight:normal;font-stretch:normal;line-height:125%;letter-spacing:0px;word-spacing:0px;fill:#000000;fill-opacity:1;stroke:none;font-family:Source Sans Pro;-inkscape-font-specification:Source Sans Pro"
       x="233.45299"
       y="622.33661"
       id="text3867"
       sodipodi:linespacing="125%"><tspan
         id="tspan3871"
         sodipodi:role="line"
         x="233.45299"
         y="622.33661"
         style="text-align:center;text-anchor:middle">Abmeldung per</tspan><tspan
         sodipodi:role="line"
         x="233.45299"
         y="653.64758"
         id="tspan3875"
         style="text-align:center;text-anchor:middle">E-Mail</tspan><tspan
         sodipodi:role="line"
         x="233.45299"
         y="684.95862"
         id="tspan3877"
         style="text-align:center;text-anchor:middle" /></text>
    <path
       sodipodi:type="arc"
       style="opacity:0.96000001;fill:none;stroke:#000000;stroke-width:36.32828903;stroke-miterlimit:4;stroke-opacity:1;stroke-dasharray:none"
       id="path3879"
       sodipodi:cx="-762.85712"
       sodipodi:cy="-90.494957"
       sodipodi:rx="105.71429"
       sodipodi:ry="105.71429"
       d="m -657.14283,-90.494957 a 105.71429,105.71429 0 1 1 -211.42857,0 105.71429,105.71429 0 1 1 211.42857,0 z"
       transform="matrix(0.15615028,0,0,0.15615028,574.87537,658.06086)" />
    <text
       xml:space="preserve"
       style="font-size:40px;font-style:normal;font-variant:normal;font-weight:normal;font-stretch:normal;line-height:125%;letter-spacing:0px;word-spacing:0px;fill:#000000;fill-opacity:1;stroke:none;font-family:Source Sans Pro;-inkscape-font-specification:Source Sans Pro"
       x="482.71246"
       y="658.86395"
       id="text3881"
       sodipodi:linespacing="125%"><tspan
         sodipodi:role="line"
         id="tspan3883"
         x="482.71246"
         y="658.86395">Keine Note</tspan></text>
    <g
       id="g3900"
       transform="translate(229.40791,-137.0075)">
      <path
         transform="translate(54.165757,7.9655524)"
         d="m -167.27659,218.36884 c 0,10.5582 -8.55912,19.11732 -19.11733,19.11732 -10.55821,0 -19.11733,-8.55912 -19.11733,-19.11732 0,-10.55821 8.55912,-19.11733 19.11733,-19.11733 10.55821,0 19.11733,8.55912 19.11733,19.11733 z"
         sodipodi:ry="19.117327"
         sodipodi:rx="19.117327"
         sodipodi:cy="218.36884"
         sodipodi:cx="-186.39392"
         id="path3893"
         style="opacity:0.96000001;fill:#000000;fill-opacity:1;stroke:#000000;stroke-width:6;stroke-linecap:square;stroke-miterlimit:4;stroke-opacity:1;stroke-dasharray:none"
         sodipodi:type="arc" />
      <path
         id="path3895"
         d="m -132.21875,247.03125 c -25.51567,0 -46.21875,12.85019 -46.21875,28.6875 0,0.53768 0.0467,1.06336 0.0937,1.59375 l 92.21875,0 c 0.04706,-0.53039 0.09375,-1.05607 0.09375,-1.59375 0,-15.83731 -20.67183,-28.6875 -46.1875,-28.6875 z"
         style="opacity:0.96000001;fill:#000000;fill-opacity:1;stroke:#000000;stroke-width:6;stroke-linecap:square;stroke-miterlimit:4;stroke-opacity:1;stroke-dasharray:none"
         inkscape:connector-curvature="0" />
    </g>
    <g
       transform="matrix(0.392865,0,0,0.392865,44.37466,429.86454)"
       id="g3904">
      <path
         sodipodi:type="arc"
         style="opacity:0.96000001;fill:#000000;fill-opacity:1;stroke:#000000;stroke-width:6;stroke-linecap:square;stroke-miterlimit:4;stroke-opacity:1;stroke-dasharray:none"
         id="path3906"
         sodipodi:cx="-186.39392"
         sodipodi:cy="218.36884"
         sodipodi:rx="19.117327"
         sodipodi:ry="19.117327"
         d="m -167.27659,218.36884 c 0,10.5582 -8.55912,19.11732 -19.11733,19.11732 -10.55821,0 -19.11733,-8.55912 -19.11733,-19.11732 0,-10.55821 8.55912,-19.11733 19.11733,-19.11733 10.55821,0 19.11733,8.55912 19.11733,19.11733 z"
         transform="translate(54.165757,7.9655524)" />
      <path
         inkscape:connector-curvature="0"
         style="opacity:0.96000001;fill:#000000;fill-opacity:1;stroke:#000000;stroke-width:6;stroke-linecap:square;stroke-miterlimit:4;stroke-opacity:1;stroke-dasharray:none"
         d="m -132.21875,247.03125 c -25.51567,0 -46.21875,12.85019 -46.21875,28.6875 0,0.53768 0.0467,1.06336 0.0937,1.59375 l 92.21875,0 c 0.04706,-0.53039 0.09375,-1.05607 0.09375,-1.59375 0,-15.83731 -20.67183,-28.6875 -46.1875,-28.6875 z"
         id="path3908" />
    </g>
    <g
       id="g3910"
       transform="matrix(0.392865,0,0,0.392865,45.96777,480.84408)">
      <path
         transform="translate(54.165757,7.9655524)"
         d="m -167.27659,218.36884 c 0,10.5582 -8.55912,19.11732 -19.11733,19.11732 -10.55821,0 -19.11733,-8.55912 -19.11733,-19.11732 0,-10.55821 8.55912,-19.11733 19.11733,-19.11733 10.55821,0 19.11733,8.55912 19.11733,19.11733 z"
         sodipodi:ry="19.117327"
         sodipodi:rx="19.117327"
         sodipodi:cy="218.36884"
         sodipodi:cx="-186.39392"
         id="path3912"
         style="opacity:0.96000001;fill:#000000;fill-opacity:1;stroke:#000000;stroke-width:6;stroke-linecap:square;stroke-miterlimit:4;stroke-opacity:1;stroke-dasharray:none"
         sodipodi:type="arc" />
      <path
         id="path3914"
         d="m -132.21875,247.03125 c -25.51567,0 -46.21875,12.85019 -46.21875,28.6875 0,0.53768 0.0467,1.06336 0.0937,1.59375 l 92.21875,0 c 0.04706,-0.53039 0.09375,-1.05607 0.09375,-1.59375 0,-15.83731 -20.67183,-28.6875 -46.1875,-28.6875 z"
         style="opacity:0.96000001;fill:#000000;fill-opacity:1;stroke:#000000;stroke-width:6;stroke-linecap:square;stroke-miterlimit:4;stroke-opacity:1;stroke-dasharray:none"
         inkscape:connector-curvature="0" />
    </g>
    <g
       transform="matrix(0.392865,0,0,0.392865,45.96777,578.02382)"
       id="g3916">
      <path
         sodipodi:type="arc"
         style="opacity:0.96000001;fill:#000000;fill-opacity:1;stroke:#000000;stroke-width:6;stroke-linecap:square;stroke-miterlimit:4;stroke-opacity:1;stroke-dasharray:none"
         id="path3918"
         sodipodi:cx="-186.39392"
         sodipodi:cy="218.36884"
         sodipodi:rx="19.117327"
         sodipodi:ry="19.117327"
         d="m -167.27659,218.36884 c 0,10.5582 -8.55912,19.11732 -19.11733,19.11732 -10.55821,0 -19.11733,-8.55912 -19.11733,-19.11732 0,-10.55821 8.55912,-19.11733 19.11733,-19.11733 10.55821,0 19.11733,8.55912 19.11733,19.11733 z"
         transform="translate(54.165757,7.9655524)" />
      <path
         inkscape:connector-curvature="0"
         style="opacity:0.96000001;fill:#000000;fill-opacity:1;stroke:#000000;stroke-width:6;stroke-linecap:square;stroke-miterlimit:4;stroke-opacity:1;stroke-dasharray:none"
         d="m -132.21875,247.03125 c -25.51567,0 -46.21875,12.85019 -46.21875,28.6875 0,0.53768 0.0467,1.06336 0.0937,1.59375 l 92.21875,0 c 0.04706,-0.53039 0.09375,-1.05607 0.09375,-1.59375 0,-15.83731 -20.67183,-28.6875 -46.1875,-28.6875 z"
         id="path3920" />
    </g>
    <g
       transform="matrix(0.392865,0,0,0.392865,44.37466,531.82362)"
       id="g3955">
      <path
         sodipodi:type="arc"
         style="opacity:0.96000001;fill:#000000;fill-opacity:1;stroke:#000000;stroke-width:6;stroke-linecap:square;stroke-miterlimit:4;stroke-opacity:1;stroke-dasharray:none"
         id="path3957"
         sodipodi:cx="-186.39392"
         sodipodi:cy="218.36884"
         sodipodi:rx="19.117327"
         sodipodi:ry="19.117327"
         d="m -167.27659,218.36884 c 0,10.5582 -8.55912,19.11732 -19.11733,19.11732 -10.55821,0 -19.11733,-8.55912 -19.11733,-19.11732 0,-10.55821 8.55912,-19.11733 19.11733,-19.11733 10.55821,0 19.11733,8.55912 19.11733,19.11733 z"
         transform="translate(54.165757,7.9655524)" />
      <path
         inkscape:connector-curvature="0"
         style="opacity:0.96000001;fill:#000000;fill-opacity:1;stroke:#000000;stroke-width:6;stroke-linecap:square;stroke-miterlimit:4;stroke-opacity:1;stroke-dasharray:none"
         d="m -132.21875,247.03125 c -25.51567,0 -46.21875,12.85019 -46.21875,28.6875 0,0.53768 0.0467,1.06336 0.0937,1.59375 l 92.21875,0 c 0.04706,-0.53039 0.09375,-1.05607 0.09375,-1.59375 0,-15.83731 -20.67183,-28.6875 -46.1875,-28.6875 z"
         id="path3959" />
    </g>
    <path
       style="fill:none;stroke:#000000;stroke-width:5.67267227;stroke-linecap:butt;stroke-linejoin:miter;stroke-miterlimit:4;stroke-opacity:1;stroke-dasharray:none"
       d="m 147.60058,629.4593 194.12546,1.08973 96.4167,7.1273"
       id="path3966"
       inkscape:connector-curvature="0"
       sodipodi:nodetypes="ccc" />
    <path
       style="fill:none;stroke:#007700;stroke-width:4.99999952;stroke-linecap:butt;stroke-linejoin:miter;stroke-miterlimit:4;stroke-opacity:1;stroke-dasharray:none"
       d="m 482.05185,529.04709 c 0,0 4.75405,5.95588 5.50292,3.23537 1.8734,-6.80568 7.3759,-13.42677 7.3759,-13.42677"
       id="path3968"
       inkscape:connector-curvature="0"
       sodipodi:nodetypes="csc" />
    <path
       style="fill:none;stroke:#db0000;stroke-width:6;stroke-linecap:butt;stroke-linejoin:miter;stroke-miterlimit:4;stroke-opacity:1;stroke-dasharray:none"
       d="m 242.39735,586.38568 15.17474,-16.49429"
       id="path3981"
       inkscape:connector-curvature="0" />
    <path
       inkscape:connector-curvature="0"
       id="path3989"
       d="m 362.15421,569.89139 15.83451,17.15406"
       style="fill:none;stroke:#db0000;stroke-width:6;stroke-linecap:butt;stroke-linejoin:miter;stroke-miterlimit:4;stroke-opacity:1;stroke-dasharray:none" />
    <path
       inkscape:connector-curvature="0"
       id="path3991"
       d="m 363.47375,586.38568 15.17474,-16.49429"
       style="fill:none;stroke:#db0000;stroke-width:6;stroke-linecap:butt;stroke-linejoin:miter;stroke-miterlimit:4;stroke-opacity:1;stroke-dasharray:none" />
    <path
       style="fill:none;stroke:#db0000;stroke-width:6;stroke-linecap:butt;stroke-linejoin:miter;stroke-miterlimit:4;stroke-opacity:1;stroke-dasharray:none"
       d="m 363.47375,586.38568 15.17474,-16.49429"
       id="path3993"
       inkscape:connector-curvature="0" />
    <path
       style="fill:none;stroke:#db0000;stroke-width:6;stroke-linecap:butt;stroke-linejoin:miter;stroke-miterlimit:4;stroke-opacity:1;stroke-dasharray:none"
       d="m 480.45128,568.29828 15.83451,17.15406"
       id="path3995"
       inkscape:connector-curvature="0" />
    <path
       style="fill:none;stroke:#db0000;stroke-width:6;stroke-linecap:butt;stroke-linejoin:miter;stroke-miterlimit:4;stroke-opacity:1;stroke-dasharray:none"
       d="m 481.77082,584.79257 15.17474,-16.49429"
       id="path3997"
       inkscape:connector-curvature="0" />
    <path
       inkscape:connector-curvature="0"
       id="path3999"
       d="m 481.77082,584.79257 15.17474,-16.49429"
       style="fill:none;stroke:#db0000;stroke-width:6;stroke-linecap:butt;stroke-linejoin:miter;stroke-miterlimit:4;stroke-opacity:1;stroke-dasharray:none" />
    <path
       sodipodi:nodetypes="csc"
       inkscape:connector-curvature="0"
       id="path4001"
       d="m 360.97545,529.04709 c 0,0 4.75405,5.95588 5.50292,3.23537 1.8734,-6.80568 7.3759,-13.42677 7.3759,-13.42677"
       style="fill:none;stroke:#007700;stroke-width:4.99999952;stroke-linecap:butt;stroke-linejoin:miter;stroke-miterlimit:4;stroke-opacity:1;stroke-dasharray:none" />
  </g>
</svg>
